star.trek.enterprise.s01e04.1080p.bluray.x264-rovers.mkv
Format : Matroska
Format version : Version 4 / Version 2
File size : 3.27 GiB
Duration : 44mn 21s
Overall bit rate : 10.6 Mbps

Video #1
ID : 1
Format : AVC
Format/Info : Advanced Video Codec
Format profile : High@L4.1
Format settings, CABAC : Yes
Format settings, ReFrames : 4 frames
Codec ID : V_MPEG4/ISO/AVC
Duration : 44mn 21s
Bit rate : 9 068 Kbps
Width : 1 920 pixels
Height : 1 080 pixels
Display aspect ratio : 16:9
Frame rate : 23.976 fps
Color space : YUV
Chroma subsampling : 4:2:0
Bit depth : 8 bits
Scan type : Progressive
Bits/(Pixel*Frame) : 0.182
Stream size : 2.74 GiB (84%)
Language : English
Default : Yes
Forced : No

Audio #2
ID : 2
Format : DTS
Format/Info : Digital Theater Systems
Codec ID : A_DTS
Duration : 44mn 21s
Bit rate mode : Constant
Bit rate : 1 510 Kbps
Channel(s) : 6 channels
Channel positions : Front: L C R, Side: L R, LFE
Sampling rate : 48.0 KHz
Bit depth : 24 bits
Compression mode : Lossy
Stream size : 479 MiB (14%)
Title : DTS
Language : English
Default : Yes
Forced : No